<svg width="18" height="19" viewBox="0 0 18 19" fill="none" xmlns="http://www.w3.org/2000/svg">
    <path fill-rule="evenodd" clip-rule="evenodd" d="M6 5C6 3.34315 7.34315 2 9 2C10.6569 2 12 3.34315 12 5H6ZM4 7C4 7.55228 4.44772 8 5 8C5.55228 8 6 7.55228 6 7H12C12 7.55228 12.4477 8 13 8C13.5523 8 14 7.55228 14 7H16V15C16 16.1046 15.1046 17 14 17H4C2.89543 17 2 16.1046 2 15V7H4ZM4 5C4 2.23858 6.23858 0 9 0C11.7614 0 14 2.23858 14 5H16C17.1046 5 18 5.89543 18 7V15C18 17.2091 16.2091 19 14 19H4C1.79086 19 0 17.2091 0 15V7C0 5.89543 0.89543 5 2 5H4Z" fill="#0F0F0F"/>
</svg>
