<svg width="17" height="16" viewBox="0 0 17 16" fill="none" xmlns="http://www.w3.org/2000/svg">
    <path d="M15.4439 5.26471C15.5761 5.67647 15.4733 6 15.15 6.25L11.814 8.77941L13.0926 12.8971C13.2542 13.4706 12.828 14 12.299 14C12.1227 14 11.961 13.9412 11.814 13.8235L8.49282 11.2941L5.1716 13.8235C4.99354 13.9443 4.77645 13.9932 4.56386 13.9605C4.35126 13.9277 4.1589 13.8158 4.02534 13.6471C3.93942 13.5446 3.88307 13.4206 3.86235 13.2884C3.84164 13.1563 3.85734 13.0209 3.90778 12.8971L5.1716 8.80882L1.83569 6.25C1.52708 6 1.42421 5.67647 1.55647 5.26471C1.67403 4.91176 1.98264 4.67647 2.32064 4.67647H6.43543L7.71395 0.573529C7.81682 0.235294 8.12543 0 8.47813 0C8.84552 0 9.16882 0.25 9.27169 0.602941L10.5502 4.67647H14.665C15.0177 4.67647 15.3263 4.91176 15.4439 5.26471Z" fill="#337566"/>
</svg>